<?xml version="1.0" encoding="utf-8"?>
<!-- Generator: Adobe Illustrator 27.5.0, SVG Export Plug-In . SVG Version: 6.00 Build 0)  -->
<svg version="1.1" xmlns="http://www.w3.org/2000/svg" xmlns:xlink="http://www.w3.org/1999/xlink" x="0px" y="0px"
	 viewBox="0 0 841.89 841.89" style="enable-background:new 0 0 841.89 841.89;" xml:space="preserve">
<g id="Layer_2">
	<rect style="fill:#115E85;" width="841.89" height="841.89"/>
	<g>
		<path style="fill:#FFFFFF;" d="M179.635,809.568c-0.428,3.935-1.835,6.947-4.222,9.035c-2.387,2.088-5.566,3.131-9.535,3.131
			c-2.772,0-5.224-0.693-7.354-2.079c-2.13-1.386-3.777-3.349-4.941-5.891c-1.164-2.541-1.754-5.445-1.771-8.714v-4.852
			c0-3.318,0.582-6.262,1.746-8.829c1.163-2.566,2.836-4.547,5.018-5.942c2.182-1.394,4.693-2.092,7.534-2.092
			c4.004,0,7.165,1.078,9.484,3.234c2.318,2.156,3.666,5.143,4.043,8.958h-3.183c-0.787-6.349-4.235-9.522-10.344-9.522
			c-3.388,0-6.088,1.267-8.098,3.802c-2.011,2.534-3.016,6.036-3.016,10.506v4.573c0,4.314,0.979,7.757,2.939,10.326
			c1.96,2.568,4.607,3.852,7.944,3.852c3.302,0,5.792-0.791,7.469-2.373c1.677-1.583,2.712-3.957,3.106-7.123H179.635z"/>
		<path style="fill:#FFFFFF;" d="M190.492,818.552h18.455v2.669H187.31V783.85h3.183V818.552z"/>
		<path style="fill:#FFFFFF;" d="M240.954,804.563c0,3.44-0.595,6.461-1.784,9.06c-1.189,2.602-2.888,4.604-5.095,6.007
			c-2.208,1.403-4.757,2.104-7.649,2.104c-4.363,0-7.889-1.561-10.575-4.684c-2.687-3.123-4.03-7.337-4.03-12.642v-3.851
			c0-3.404,0.603-6.42,1.81-9.047c1.206-2.627,2.913-4.647,5.121-6.058c2.207-1.411,4.748-2.118,7.623-2.118
			c2.874,0,5.411,0.693,7.61,2.08c2.198,1.386,3.897,3.346,5.095,5.877c1.198,2.533,1.822,5.467,1.874,8.805V804.563z
			 M237.797,800.508c0-4.5-1.019-8.025-3.054-10.574c-2.037-2.551-4.826-3.825-8.368-3.825c-3.474,0-6.242,1.279-8.303,3.837
			c-2.063,2.559-3.093,6.131-3.093,10.717v3.9c0,4.433,1.027,7.945,3.08,10.537c2.054,2.592,4.842,3.889,8.368,3.889
			c3.576,0,6.365-1.279,8.368-3.838c2.002-2.557,3.003-6.121,3.003-10.69V800.508z"/>
		<path style="fill:#FFFFFF;" d="M274.655,783.85v25.514c-0.017,2.516-0.573,4.705-1.668,6.57c-1.095,1.865-2.64,3.299-4.633,4.299
			c-1.994,1.002-4.282,1.502-6.866,1.502c-3.936,0-7.089-1.073-9.458-3.221c-2.37-2.147-3.598-5.121-3.683-8.92V783.85h3.131v25.282
			c0,3.15,0.899,5.592,2.695,7.328c1.797,1.737,4.235,2.604,7.315,2.604s5.514-0.872,7.302-2.617
			c1.788-1.746,2.682-4.176,2.682-7.289V783.85H274.655z"/>
		<path style="fill:#FFFFFF;" d="M283.459,821.221V783.85h10.447c3.063,0,5.809,0.697,8.239,2.092
			c2.43,1.394,4.325,3.393,5.686,5.994c1.36,2.601,2.041,5.561,2.041,8.881v3.44c0,3.336-0.676,6.297-2.028,8.881
			c-1.352,2.584-3.256,4.576-5.711,5.98c-2.456,1.402-5.274,2.104-8.457,2.104H283.459z M286.616,786.519v32.032h7.084
			c3.935,0,7.093-1.306,9.471-3.917c2.378-2.611,3.568-6.145,3.568-10.597v-3.288c0-4.298-1.172-7.74-3.517-10.326
			c-2.344-2.586-5.433-3.887-9.266-3.904H286.616z"/>
		<path style="fill:#FFFFFF;" d="M330.661,821.221V783.85h10.447c3.063,0,5.809,0.697,8.239,2.092
			c2.43,1.394,4.325,3.393,5.685,5.994c1.36,2.601,2.041,5.561,2.041,8.881v3.44c0,3.336-0.676,6.297-2.028,8.881
			c-1.352,2.584-3.256,4.576-5.711,5.98c-2.456,1.402-5.274,2.104-8.457,2.104H330.661z M333.818,786.519v32.032h7.084
			c3.936,0,7.093-1.306,9.471-3.917c2.379-2.611,3.568-6.145,3.568-10.597v-3.288c0-4.298-1.172-7.74-3.517-10.326
			c-2.344-2.586-5.433-3.887-9.266-3.904H333.818z"/>
		<path style="fill:#FFFFFF;" d="M384.716,810.723H367.75l-3.85,10.498h-3.311l14.142-37.371h3.003l14.143,37.371h-3.285
			L384.716,810.723z M368.726,808.054h14.989l-7.495-20.354L368.726,808.054z"/>
		<path style="fill:#FFFFFF;" d="M419.418,786.519H406.61v34.701h-3.157v-34.701H390.67v-2.67h28.748V786.519z"/>
		<path style="fill:#FFFFFF;" d="M443.596,810.723h-16.965l-3.851,10.498h-3.311l14.142-37.371h3.004l14.143,37.371h-3.285
			L443.596,810.723z M427.605,808.054h14.99l-7.495-20.354L427.605,808.054z"/>
		<path style="fill:#FFFFFF;" d="M490.182,812.032c0-2.07-0.727-3.709-2.182-4.915c-1.454-1.207-4.115-2.353-7.982-3.44
			c-3.867-1.086-6.69-2.271-8.47-3.555c-2.532-1.814-3.799-4.192-3.799-7.136c0-2.857,1.177-5.181,3.529-6.969
			c2.353-1.788,5.36-2.683,9.022-2.683c2.48,0,4.701,0.481,6.66,1.438c1.959,0.959,3.479,2.293,4.556,4.004
			c1.078,1.712,1.617,3.619,1.617,5.725h-3.183c0-2.557-0.873-4.613-2.618-6.166c-1.745-1.553-4.09-2.33-7.032-2.33
			c-2.858,0-5.134,0.639-6.828,1.916c-1.693,1.276-2.541,2.943-2.541,5c0,1.902,0.762,3.453,2.285,4.652
			c1.521,1.2,3.961,2.259,7.314,3.176c3.354,0.916,5.895,1.867,7.623,2.851c1.728,0.984,3.029,2.161,3.901,3.529
			c0.872,1.369,1.309,2.986,1.309,4.851c0,2.943-1.178,5.305-3.529,7.084c-2.353,1.781-5.455,2.67-9.305,2.67
			c-2.635,0-5.053-0.471-7.251-1.412c-2.199-0.941-3.867-2.258-5.005-3.952c-1.139-1.694-1.707-3.636-1.707-5.827h3.156
			c0,2.636,0.984,4.715,2.953,6.238c1.967,1.523,4.585,2.283,7.854,2.283c2.908,0,5.244-0.641,7.008-1.924
			C489.301,815.857,490.182,814.154,490.182,812.032z"/>
		<path style="fill:#FFFFFF;" d="M525.525,786.519h-12.808v34.701h-3.157v-34.701h-12.782v-2.67h28.747V786.519z"/>
		<path style="fill:#FFFFFF;" d="M558.457,804.563c0,3.44-0.596,6.461-1.784,9.06c-1.19,2.602-2.888,4.604-5.095,6.007
			c-2.207,1.403-4.758,2.104-7.648,2.104c-4.363,0-7.889-1.561-10.575-4.684c-2.686-3.123-4.03-7.337-4.03-12.642v-3.851
			c0-3.404,0.604-6.42,1.811-9.047c1.205-2.627,2.912-4.647,5.12-6.058c2.207-1.411,4.748-2.118,7.623-2.118
			c2.874,0,5.411,0.693,7.61,2.08c2.198,1.386,3.896,3.346,5.095,5.877c1.198,2.533,1.822,5.467,1.874,8.805V804.563z
			 M555.3,800.508c0-4.5-1.018-8.025-3.054-10.574c-2.037-2.551-4.826-3.825-8.368-3.825c-3.474,0-6.241,1.279-8.304,3.837
			c-2.063,2.559-3.093,6.131-3.093,10.717v3.9c0,4.433,1.026,7.945,3.08,10.537c2.054,2.592,4.843,3.889,8.368,3.889
			c3.576,0,6.365-1.279,8.367-3.838c2.002-2.557,3.003-6.121,3.003-10.69V800.508z"/>
		<path style="fill:#FFFFFF;" d="M580.377,805.641h-10.858v15.58h-3.183V783.85h12.14c3.987,0,7.102,0.966,9.344,2.897
			c2.241,1.931,3.362,4.632,3.362,8.101c0,2.392-0.702,4.504-2.104,6.332c-1.404,1.83-3.285,3.094-5.646,3.795l9.342,15.912v0.334
			h-3.361L580.377,805.641z M569.519,802.972h9.676c2.652,0,4.783-0.754,6.392-2.263c1.608-1.508,2.413-3.461,2.413-5.861
			c0-2.639-0.839-4.687-2.516-6.143c-1.678-1.457-4.029-2.186-7.059-2.186h-8.906V802.972z"/>
		<path style="fill:#FFFFFF;" d="M619.955,810.723h-16.966l-3.851,10.498h-3.311l14.143-37.371h3.003l14.143,37.371h-3.285
			L619.955,810.723z M603.965,808.054h14.989l-7.495-20.354L603.965,808.054z"/>
		<path style="fill:#FFFFFF;" d="M659.303,816.781c-1.096,1.557-2.81,2.771-5.146,3.644c-2.336,0.873-4.949,1.309-7.841,1.309
			c-2.927,0-5.527-0.701-7.803-2.104c-2.276-1.403-4.038-3.388-5.288-5.954c-1.248-2.567-1.882-5.51-1.898-8.83v-4.723
			c0-5.185,1.309-9.279,3.927-12.281c2.618-3.004,6.134-4.506,10.55-4.506c3.85,0,6.946,0.981,9.291,2.94
			c2.344,1.959,3.738,4.658,4.183,8.098h-3.157c-0.462-2.746-1.579-4.827-3.35-6.243c-1.771-1.415-4.085-2.124-6.942-2.124
			c-3.491,0-6.255,1.242-8.291,3.725c-2.037,2.483-3.055,5.985-3.055,10.506v4.418c0,2.843,0.483,5.356,1.451,7.539
			c0.966,2.184,2.352,3.875,4.158,5.074c1.805,1.198,3.879,1.797,6.224,1.797c2.721,0,5.056-0.427,7.007-1.283
			c1.266-0.565,2.207-1.223,2.824-1.976v-9.651h-10.037v-2.669h13.193V816.781z"/>
		<path style="fill:#FFFFFF;" d="M688.897,803.306h-17.479v15.246h20.098v2.669h-23.255V783.85h23.126v2.67h-19.969v14.117h17.479
			V803.306z"/>
	</g>
	<g>
		<g>
			<path style="fill:#549FC4;" d="M299.779,45.708h4.376c-0.642,2.45-1.868,4.318-3.675,5.601c-1.809,1.343-4.084,2.013-6.826,2.013
				c-3.324,0-5.921-1.079-7.787-3.238c-1.868-2.1-2.801-5.104-2.801-9.013c0-3.732,0.904-6.65,2.713-8.751
				c1.866-2.157,4.463-3.237,7.788-3.237c3.501,0,6.212,1.05,8.138,3.149c1.051,1.285,1.809,2.772,2.275,4.463h-6.125
				c-0.293-0.582-0.584-1.02-0.875-1.313c-0.76-0.815-1.838-1.225-3.238-1.225c-1.283,0-2.334,0.409-3.15,1.225
				c-1.05,1.168-1.574,3.094-1.574,5.775c0,2.685,0.524,4.581,1.574,5.688c0.758,0.935,1.895,1.399,3.414,1.399
				c0.99,0,1.836-0.203,2.536-0.611c0.175-0.059,0.335-0.16,0.481-0.307c0.145-0.146,0.307-0.307,0.481-0.481
				c0.116-0.175,0.351-0.407,0.7-0.7C298.555,45.854,299.08,45.708,299.779,45.708z"/>
			<path style="fill:#549FC4;" d="M306.132,52.884V41.595c0-2.274,0.335-4.185,1.006-5.73s1.59-2.785,2.757-3.719
				c1.108-0.875,2.406-1.518,3.895-1.926c1.486-0.408,3.02-0.613,4.594-0.613c0.116,0,0.262,0,0.438,0c0.175,0,0.32,0,0.438,0v6.213
				h-2.013c-1.692,0-2.946,0.41-3.763,1.226c-0.817,0.817-1.226,2.101-1.226,3.851v11.988H306.132z"/>
			<path style="fill:#549FC4;" d="M337.072,45.708h4.375c-0.643,2.45-1.867,4.318-3.674,5.601c-1.809,1.343-4.085,2.013-6.826,2.013
				c-3.326,0-5.922-1.079-7.788-3.238c-1.868-2.1-2.8-5.104-2.8-9.013c0-3.732,0.904-6.65,2.713-8.751
				c1.865-2.157,4.462-3.237,7.787-3.237c3.5,0,6.213,1.05,8.139,3.149c1.865,2.16,2.8,5.164,2.8,9.014c0,0.234,0,0.438,0,0.612
				s0,0.293,0,0.351c0,0.293-0.03,0.496-0.087,0.612h-15.139c0.057,1.809,0.494,3.15,1.313,4.025
				c0.758,0.935,1.895,1.399,3.412,1.399c0.992,0,1.838-0.203,2.538-0.611c0.175-0.059,0.335-0.16,0.481-0.307
				c0.144-0.146,0.307-0.307,0.48-0.481c0.058-0.175,0.277-0.407,0.657-0.7C335.832,45.854,336.373,45.708,337.072,45.708z
				 M326.572,38.883h8.926c-0.117-1.575-0.525-2.741-1.225-3.501c-0.759-0.815-1.837-1.225-3.237-1.225
				c-1.285,0-2.334,0.409-3.15,1.225C327.066,36.2,326.629,37.366,326.572,38.883z"/>
			<path style="fill:#549FC4;" d="M358.65,51.921c-1.227,0.643-2.524,1.035-3.895,1.182c-1.371,0.145-2.581,0.219-3.632,0.219
				c-2.1,0-3.938-0.568-5.513-1.707c-1.574-1.137-2.362-3.019-2.362-5.644c0-2.45,0.714-4.2,2.144-5.251
				c1.43-1.049,3.252-1.75,5.47-2.1c0.291,0,0.641-0.043,1.05-0.131c0.408-0.088,0.875-0.16,1.4-0.219
				c2.566-0.351,3.85-1.107,3.85-2.275c0-0.875-0.452-1.443-1.355-1.707c-0.905-0.262-1.736-0.394-2.494-0.394
				c-0.818,0-1.547,0.118-2.189,0.351c-0.642,0.233-1.108,0.672-1.399,1.313h-5.863c0.232-1.808,1.051-3.295,2.45-4.463
				c1.575-1.342,3.821-2.013,6.738-2.013c3.267,0,5.716,0.556,7.351,1.663c1.691,1.167,2.537,2.8,2.537,4.9v7.963
				c0,2.334-0.424,4.156-1.269,5.469C360.822,50.39,359.816,51.339,358.65,51.921z M357.25,41.157
				c-0.817,0.409-1.955,0.789-3.412,1.139l-2.014,0.438c-1.049,0.292-1.809,0.671-2.275,1.137c-0.408,0.643-0.611,1.284-0.611,1.926
				c0,0.875,0.262,1.574,0.787,2.1c0.524,0.468,1.283,0.7,2.275,0.7c1.632,0,2.916-0.466,3.85-1.399
				c0.933-0.934,1.4-2.217,1.4-3.851V41.157z"/>
			<path style="fill:#549FC4;" d="M374.645,52.884c-1.924,0.116-4.012,0.088-6.256-0.088c-2.247-0.175-3.369-1.603-3.369-4.287
				V22.782h3.15c0.757,0,1.429,0.292,2.012,0.874c0.583,0.584,0.876,1.284,0.876,2.101v3.938h3.587v1.225
				c0,0.875-0.292,1.591-0.874,2.145c-0.584,0.555-1.284,0.831-2.101,0.831h-0.612v12.951c0,0.993,0.582,1.487,1.75,1.487h1.837
				V52.884z"/>
			<path style="fill:#549FC4;" d="M376.202,22.782h3.15c0.817,0,1.517,0.292,2.102,0.874c0.582,0.584,0.875,1.284,0.875,2.101v1.838
				h-6.126V22.782z M376.202,29.606h3.15c0.817,0,1.517,0.293,2.102,0.876c0.582,0.584,0.875,1.283,0.875,2.1v20.302h-6.126V29.606z
				"/>
			<path style="fill:#549FC4;" d="M397.955,52.884h-6.213l-8.139-23.277h6.476l4.638,16.364l4.113-14.263
				c0.466-1.4,1.4-2.102,2.8-2.102h4.55L397.955,52.884z"/>
			<path style="fill:#549FC4;" d="M421.898,45.708h4.376c-0.643,2.45-1.869,4.318-3.676,5.601c-1.81,1.343-4.084,2.013-6.825,2.013
				c-3.326,0-5.922-1.079-7.789-3.238c-1.867-2.1-2.799-5.104-2.799-9.013c0-3.732,0.902-6.65,2.711-8.751
				c1.867-2.157,4.464-3.237,7.789-3.237c3.5,0,6.213,1.05,8.138,3.149c1.867,2.16,2.801,5.164,2.801,9.014c0,0.234,0,0.438,0,0.612
				s0,0.293,0,0.351c0,0.293-0.031,0.496-0.088,0.612h-15.139c0.058,1.809,0.495,3.15,1.313,4.025
				c0.757,0.935,1.896,1.399,3.413,1.399c0.99,0,1.838-0.203,2.537-0.611c0.176-0.059,0.336-0.16,0.481-0.307
				c0.145-0.146,0.307-0.307,0.481-0.481c0.058-0.175,0.275-0.407,0.656-0.7C420.658,45.854,421.198,45.708,421.898,45.708z
				 M411.397,38.883h8.926c-0.118-1.575-0.524-2.741-1.225-3.501c-0.759-0.815-1.838-1.225-3.239-1.225
				c-1.283,0-2.333,0.409-3.149,1.225C411.893,36.2,411.455,37.366,411.397,38.883z"/>
			<path style="fill:#549FC4;" d="M444.106,58.483c0,0.816-0.293,1.517-0.875,2.101c-0.584,0.583-1.284,0.875-2.1,0.875h-2.975
				V39.671c0-4.084,1.193-6.869,3.586-8.357c2.392-1.488,4.988-2.231,7.789-2.231c1.457,0,2.932,0.278,4.419,0.831
				c1.487,0.555,2.669,1.357,3.544,2.406c1.75,2.275,2.625,5.193,2.625,8.751c0,3.675-0.875,6.65-2.625,8.925
				c-1.75,2.219-3.996,3.326-6.738,3.326c-1.459,0-2.742-0.263-3.85-0.787c-1.168-0.583-2.102-1.488-2.801-2.713V58.483z
				 M454.083,41.333c0-2.275-0.438-4.025-1.313-5.25c-0.875-1.226-2.131-1.838-3.764-1.838c-1.575,0-2.8,0.612-3.675,1.838
				c-0.817,1.108-1.226,2.858-1.226,5.25c0,2.218,0.438,3.881,1.313,4.988c0.875,1.225,2.129,1.837,3.764,1.837
				c1.516,0,2.713-0.612,3.588-1.837C453.645,45.095,454.083,43.433,454.083,41.333z"/>
			<path style="fill:#549FC4;" d="M477.866,45.708h4.374c-0.642,2.45-1.866,4.318-3.675,5.601c-1.809,1.343-4.084,2.013-6.824,2.013
				c-3.326,0-5.923-1.079-7.789-3.238c-1.868-2.1-2.8-5.104-2.8-9.013c0-3.732,0.903-6.65,2.712-8.751
				c1.866-2.157,4.463-3.237,7.789-3.237c3.5,0,6.213,1.05,8.138,3.149c1.866,2.16,2.8,5.164,2.8,9.014c0,0.234,0,0.438,0,0.612
				s0,0.293,0,0.351c0,0.293-0.03,0.496-0.088,0.612h-15.139c0.059,1.809,0.496,3.15,1.313,4.025
				c0.758,0.935,1.896,1.399,3.414,1.399c0.99,0,1.837-0.203,2.537-0.611c0.176-0.059,0.335-0.16,0.48-0.307
				c0.145-0.146,0.307-0.307,0.482-0.481c0.057-0.175,0.275-0.407,0.656-0.7C476.626,45.854,477.165,45.708,477.866,45.708z
				 M467.364,38.883h8.926c-0.117-1.575-0.525-2.741-1.225-3.501c-0.759-0.815-1.838-1.225-3.238-1.225
				c-1.283,0-2.333,0.409-3.15,1.225C467.86,36.2,467.423,37.366,467.364,38.883z"/>
			<path style="fill:#549FC4;" d="M486.948,50.783c-1.225-1.05-2.1-2.464-2.625-4.243c-0.525-1.779-0.787-3.632-0.787-5.557
				c0-1.576,0.218-3.15,0.656-4.727c0.436-1.574,1.122-2.887,2.056-3.938c1.517-1.75,3.47-2.785,5.862-3.105
				c2.392-0.32,4.551-0.132,6.477,0.568c2.216,0.875,3.85,2.393,4.9,4.551c0.99,1.924,1.486,4.171,1.486,6.737
				c0,1.868-0.205,3.472-0.611,4.813c-0.409,1.342-0.935,2.479-1.576,3.412c-1.4,1.925-3.18,3.121-5.338,3.588
				c-1.924,0.525-3.865,0.568-5.818,0.131C489.675,52.577,488.114,51.833,486.948,50.783z M491.148,35.382
				c-1.225,1.344-1.78,3.341-1.663,5.994c0.117,2.656,0.612,4.508,1.488,5.557c0.35,0.469,0.962,0.861,1.838,1.182
				c0.875,0.321,1.764,0.35,2.668,0.088c0.904-0.262,1.707-0.919,2.406-1.969c0.701-1.051,1.079-2.742,1.138-5.076
				c0-2.1-0.336-3.675-1.006-4.725c-0.671-1.051-1.444-1.721-2.319-2.013c-0.875-0.291-1.75-0.306-2.625-0.044
				C492.198,34.639,491.556,34.976,491.148,35.382z"/>
			<path style="fill:#549FC4;" d="M512.394,58.483c0,0.816-0.292,1.517-0.874,2.101c-0.584,0.583-1.284,0.875-2.101,0.875h-2.975
				V39.671c0-4.084,1.194-6.869,3.587-8.357c2.392-1.488,4.987-2.231,7.788-2.231c1.457,0,2.932,0.278,4.419,0.831
				c1.487,0.555,2.669,1.357,3.544,2.406c1.75,2.275,2.625,5.193,2.625,8.751c0,3.675-0.875,6.65-2.625,8.925
				c-1.75,2.219-3.996,3.326-6.738,3.326c-1.459,0-2.742-0.263-3.85-0.787c-1.168-0.583-2.1-1.488-2.801-2.713V58.483z
				 M522.37,41.333c0-2.275-0.438-4.025-1.313-5.25c-0.875-1.226-2.131-1.838-3.764-1.838c-1.575,0-2.8,0.612-3.675,1.838
				c-0.817,1.108-1.225,2.858-1.225,5.25c0,2.218,0.438,3.881,1.313,4.988c0.875,1.225,2.129,1.837,3.763,1.837
				c1.516,0,2.713-0.612,3.588-1.837C521.933,45.095,522.37,43.433,522.37,41.333z"/>
			<path style="fill:#549FC4;" d="M529.72,22.782h3.15c0.816,0,1.517,0.277,2.101,0.831c0.583,0.556,0.874,1.239,0.874,2.056v27.215
				h-6.125V22.782z"/>
			<path style="fill:#549FC4;" d="M554.098,45.708h4.375c-0.642,2.45-1.867,4.318-3.675,5.601c-1.809,1.343-4.084,2.013-6.825,2.013
				c-3.325,0-5.922-1.079-7.788-3.238c-1.868-2.1-2.8-5.104-2.8-9.013c0-3.732,0.903-6.65,2.712-8.751
				c1.866-2.157,4.463-3.237,7.789-3.237c3.499,0,6.212,1.05,8.138,3.149c1.866,2.16,2.8,5.164,2.8,9.014c0,0.234,0,0.438,0,0.612
				s0,0.293,0,0.351c0,0.293-0.03,0.496-0.088,0.612h-15.139c0.059,1.809,0.495,3.15,1.313,4.025
				c0.758,0.935,1.896,1.399,3.413,1.399c0.991,0,1.838-0.203,2.538-0.611c0.175-0.059,0.335-0.16,0.48-0.307
				c0.146-0.146,0.307-0.307,0.482-0.481c0.057-0.175,0.275-0.407,0.656-0.7C552.858,45.854,553.397,45.708,554.098,45.708z
				 M543.597,38.883h8.926c-0.117-1.575-0.525-2.741-1.225-3.501c-0.759-0.815-1.838-1.225-3.238-1.225
				c-1.283,0-2.334,0.409-3.15,1.225C544.092,36.2,543.655,37.366,543.597,38.883z"/>
		</g>
		<g>
			<path style="fill:#549FC4;" d="M289.482,78.05c0.867,0,1.631-0.246,2.293-0.739c0.662-0.493,0.994-1.178,0.994-2.056h1.157
				l0.021,0.066c0.036,1.092-0.4,2.005-1.31,2.74c-0.91,0.734-1.961,1.102-3.155,1.102c-1.607,0-2.851-0.551-3.727-1.654
				c-0.879-1.102-1.316-2.519-1.316-4.251V72.8c0-1.718,0.44-3.13,1.321-4.236c0.88-1.105,2.118-1.66,3.712-1.66
				c1.295,0,2.373,0.383,3.236,1.147c0.862,0.764,1.279,1.769,1.25,3.013l-0.022,0.065h-1.168c0-0.946-0.319-1.701-0.956-2.265
				c-0.636-0.565-1.417-0.847-2.341-0.847c-1.268,0-2.204,0.453-2.812,1.358c-0.608,0.904-0.911,2.044-0.911,3.418v0.458
				c0,1.396,0.301,2.544,0.905,3.446C287.26,77.6,288.202,78.05,289.482,78.05z"/>
			<path style="fill:#549FC4;" d="M316.078,72.854c0-1.739,0.477-3.165,1.43-4.278c0.953-1.114,2.217-1.672,3.789-1.672
				c1.578,0,2.845,0.558,3.799,1.672c0.953,1.113,1.43,2.539,1.43,4.278v0.36c0,1.747-0.476,3.175-1.426,4.285
				c-0.949,1.109-2.209,1.664-3.781,1.664c-1.588,0-2.857-0.555-3.811-1.664c-0.953-1.11-1.43-2.538-1.43-4.285V72.854z
				 M317.388,73.208c0,1.367,0.347,2.516,1.038,3.446c0.69,0.931,1.654,1.396,2.893,1.396c1.215,0,2.17-0.465,2.865-1.396
				c0.695-0.931,1.043-2.079,1.043-3.446v-0.359c0-1.346-0.35-2.486-1.049-3.424c-0.698-0.938-1.659-1.407-2.881-1.407
				c-1.224,0-2.181,0.469-2.871,1.407c-0.691,0.938-1.038,2.078-1.038,3.424V73.208z"/>
			<path style="fill:#549FC4;" d="M350.839,78.935h-1.3v-17.03h1.3V78.935z"/>
			<path style="fill:#549FC4;" d="M376.037,78.935h-1.3v-17.03h1.3V78.935z"/>
			<path style="fill:#549FC4;" d="M404.204,79.163c-1.479,0-2.706-0.545-3.685-1.637c-0.979-1.092-1.469-2.475-1.469-4.148v-0.601
				c0-1.688,0.486-3.089,1.457-4.202c0.973-1.114,2.148-1.672,3.531-1.672c1.449,0,2.588,0.459,3.418,1.377
				c0.829,0.916,1.244,2.139,1.244,3.668v1.113h-8.34v0.315c0,1.329,0.352,2.44,1.058,3.333c0.706,0.894,1.634,1.34,2.785,1.34
				c0.814,0,1.51-0.112,2.085-0.338c0.574-0.226,1.065-0.55,1.473-0.973l0.557,0.896c-0.443,0.467-1.006,0.839-1.686,1.114
				C405.951,79.026,405.143,79.163,404.204,79.163z M404.039,68.018c-0.968,0-1.779,0.368-2.434,1.104
				c-0.655,0.737-1.037,1.661-1.146,2.771l0.021,0.055h6.922V71.62c0-1.022-0.303-1.879-0.906-2.568
				C405.893,68.362,405.072,68.018,404.039,68.018z"/>
			<path style="fill:#549FC4;" d="M435.788,78.05c0.865,0,1.629-0.246,2.291-0.739c0.662-0.493,0.994-1.178,0.994-2.056h1.157
				l0.022,0.066c0.035,1.092-0.401,2.005-1.311,2.74c-0.91,0.734-1.962,1.102-3.154,1.102c-1.609,0-2.853-0.551-3.728-1.654
				c-0.878-1.102-1.316-2.519-1.316-4.251V72.8c0-1.718,0.441-3.13,1.322-4.236c0.879-1.105,2.117-1.66,3.711-1.66
				c1.295,0,2.375,0.383,3.236,1.147c0.862,0.764,1.279,1.769,1.25,3.013l-0.022,0.065h-1.168c0-0.946-0.318-1.701-0.955-2.265
				c-0.637-0.565-1.418-0.847-2.342-0.847c-1.266,0-2.204,0.453-2.812,1.358c-0.608,0.904-0.911,2.044-0.911,3.418v0.458
				c0,1.396,0.301,2.544,0.906,3.446C433.563,77.6,434.506,78.05,435.788,78.05z"/>
			<path style="fill:#549FC4;" d="M465.166,64.099v3.023h2.599v1.07h-2.599v7.696c0,0.771,0.14,1.319,0.421,1.644
				c0.279,0.323,0.652,0.485,1.117,0.485c0.213,0,0.418-0.009,0.617-0.028c0.201-0.018,0.432-0.048,0.693-0.092l0.197,0.971
				c-0.219,0.096-0.484,0.168-0.797,0.219c-0.313,0.051-0.626,0.076-0.939,0.076c-0.829,0-1.476-0.262-1.938-0.785
				c-0.462-0.524-0.693-1.354-0.693-2.489v-7.696h-2.041v-1.07h2.041v-3.023H465.166z"/>
			<path style="fill:#549FC4;" d="M492.122,63.739h-1.3v-1.835h1.3V63.739z M492.122,78.935h-1.3V67.122h1.3V78.935z"/>
			<path style="fill:#549FC4;" d="M515.124,72.854c0-1.739,0.478-3.165,1.43-4.278c0.955-1.114,2.217-1.672,3.789-1.672
				c1.579,0,2.846,0.558,3.799,1.672c0.953,1.113,1.43,2.539,1.43,4.278v0.36c0,1.747-0.475,3.175-1.425,4.285
				c-0.948,1.109-2.21,1.664-3.782,1.664c-1.587,0-2.855-0.555-3.811-1.664c-0.952-1.11-1.43-2.538-1.43-4.285V72.854z
				 M516.435,73.208c0,1.367,0.346,2.516,1.037,3.446c0.691,0.931,1.655,1.396,2.893,1.396c1.215,0,2.171-0.465,2.865-1.396
				c0.695-0.931,1.043-2.079,1.043-3.446v-0.359c0-1.346-0.349-2.486-1.048-3.424c-0.698-0.938-1.659-1.407-2.882-1.407
				c-1.223,0-2.18,0.469-2.871,1.407c-0.691,0.938-1.037,2.078-1.037,3.424V73.208z"/>
			<path style="fill:#549FC4;" d="M549.579,67.122l0.121,2.063c0.378-0.728,0.889-1.29,1.533-1.687
				c0.644-0.396,1.406-0.596,2.287-0.596c1.281,0,2.256,0.393,2.926,1.175c0.67,0.782,1.004,2.003,1.004,3.662v7.194h-1.311v-7.197
				c0-1.357-0.252-2.315-0.758-2.877c-0.506-0.563-1.225-0.843-2.156-0.843c-0.917,0-1.664,0.243-2.243,0.728
				c-0.579,0.485-0.995,1.129-1.251,1.931v8.259h-1.308V67.122H549.579z"/>
		</g>
	</g>
</g>
<g id="Layer_1">
	<g>
		<g>
			<path style="opacity:0.15;fill:#111111;" d="M684.032,574.943c-5.888-2.558-351.457-91.473-374.491-89.402
				c-6.948,1.271-78.822,60.789-93.015,68.713c-17.068,9.53-116.258,12.766-116.319,12.771
				c-3.574,12.495-14.023,34.061-13.99,45.966c0.076,25.067,8.915,42.701,23.188,50.99l109.713,63.762
				c19.994,7.833,27.779,10.977,45.951,0.482c26.404-15.244,126.708-73.156,204.067-117.822l63.447,36.87l4.921,37.602
				c0.01,3.896,1.383,6.633,3.603,7.925l13.655,8.327c-0.11-0.067,5.185,1.224,8.794-0.86l143.84-85.136
				c16.381-16.13,2.408-37.267,2.391-45.108L684.032,574.943z"/>
			<g>
				<g>
					<g style="enable-background:new    ;">
						<defs>
							<path id="SVGID_1_" style="enable-background:new    ;" d="M533.69,220.364c36.17,21.024,72.342,42.043,108.509,63.065
								c-14.76-8.574-33.758-9.854-55.021-2.693l-108.524-63.063C499.924,210.517,518.925,211.786,533.69,220.364z"/>
						</defs>
						<use xlink:href="#SVGID_1_"  style="overflow:visible;fill:#88E0FF;"/>
						<clipPath id="SVGID_00000158725487578402108140000009899840244593442996_">
							<use xlink:href="#SVGID_1_"  style="overflow:visible;"/>
						</clipPath>
						<g style="clip-path:url(#SVGID_00000158725487578402108140000009899840244593442996_);">
							<path style="fill:#88E0FF;" d="M587.177,280.736l-108.524-63.063c21.272-7.156,40.273-5.886,55.037,2.691l108.509,63.065
								C627.438,274.855,608.44,273.575,587.177,280.736L587.177,280.736z"/>
						</g>
					</g>
					<path style="fill:#88E0FF;" d="M445.856,166.78c-22.078-12.827-52.652-11.012-86.397,8.476
						c-54.608,31.524-100.661,99.596-115.784,165.413L352.2,403.736c15.118-65.821,61.173-133.889,115.773-165.416
						c33.748-19.488,64.327-21.303,86.392-8.473C518.196,208.824,482.025,187.804,445.856,166.78z"/>
					<g style="enable-background:new    ;">
						<defs>
							<path id="SVGID_00000127741673267287665280000018131606237350773154_" style="enable-background:new    ;" d="
								M273.663,528.733l-108.516-63.066c5.269-47.783,38.28-101.339,78.528-124.998L352.2,403.736
								C311.949,427.395,278.932,480.951,273.663,528.733z"/>
						</defs>
						<clipPath id="SVGID_00000010311102921283313770000005257515390589527983_">
							<use xlink:href="#SVGID_00000127741673267287665280000018131606237350773154_"  style="overflow:visible;"/>
						</clipPath>
						<g style="clip-path:url(#SVGID_00000010311102921283313770000005257515390589527983_);">
							<path style="fill:#88E0FF;" d="M273.663,528.733l-108.516-63.066c5.269-47.783,38.28-101.339,78.528-124.998L352.2,403.736
								C311.949,427.395,278.932,480.951,273.663,528.733L273.663,528.733z"/>
						</g>
					</g>
					<g style="enable-background:new    ;">
						<defs>
							<path id="SVGID_00000073700312303064341030000007074274938960300964_" style="enable-background:new    ;" d="
								M222.614,712.102l-108.51-63.065c-14.117-8.198-22.859-25.637-22.933-50.428c-0.132-48.222,32.617-106.437,73.977-132.942
								l108.516,63.066c-41.365,26.5-74.116,84.721-73.968,132.944C199.762,686.463,208.509,703.903,222.614,712.102z"/>
						</defs>
						<clipPath id="SVGID_00000097492650921227212870000017141041764581529991_">
							<use xlink:href="#SVGID_00000073700312303064341030000007074274938960300964_"  style="overflow:visible;"/>
						</clipPath>
						<g style="clip-path:url(#SVGID_00000097492650921227212870000017141041764581529991_);">
							<path style="fill:#88E0FF;" d="M222.614,712.102l-108.51-63.065c-14.117-8.198-22.859-25.637-22.933-50.428
								c-0.132-48.222,32.617-106.437,73.977-132.942l108.516,63.066c-41.365,26.5-74.116,84.721-73.968,132.944
								C199.762,686.463,208.509,703.903,222.614,712.102L222.614,712.102z"/>
						</g>
					</g>
					<g>
						<path style="fill:#009EC9;" d="M468.161,238.32c58.58-33.828,107.589-14.409,119.204,42.416
							c49.373-16.616,86.563,12.214,86.729,72.44c0.198,69.04-48.316,153.074-108.396,187.76
							c-46.062,26.591-247.971,143.175-286.96,165.688c-43.422,25.07-78.723,4.947-78.856-44.945
							c-0.148-48.224,32.603-106.444,73.968-132.944c5.27-47.782,38.287-101.339,78.537-124.998
							C367.507,337.915,413.561,269.847,468.161,238.32z"/>
					</g>
				</g>
				<g>
					<g style="enable-background:new    ;">
						<g>
							<path style="fill:#13728C;" d="M549.357,324.581c6.648-3.84,12.058-0.756,12.076,6.886l0.428,150.453
								c0.02,7.644-5.349,16.948-12,20.787l-130.939,75.598c-6.649,3.84-12.055,0.758-12.077-6.885l-0.429-150.456
								c-0.021-7.642,5.351-16.947,12-20.786L549.357,324.581z"/>
						</g>
					</g>
				</g>
				<g>
					<g style="enable-background:new    ;">
						<g>
							<path style="fill:#00586D;" d="M511.932,338.196c6.65-3.841,12.059-0.756,12.079,6.886l0.24,161.983
								c0.016,7.64-5.351,16.947-12.002,20.783l-101.17,58.717c-6.65,3.84-12.056,0.756-12.079-6.886l-0.239-161.983
								c-0.021-7.643,5.351-16.948,12-20.787L511.932,338.196z"/>
						</g>
					</g>
				</g>
				<g>
					<g style="enable-background:new    ;">
						<g>
							<path style="fill:#636363;" d="M454.472,371.674c6.65-3.84,12.058-0.758,12.077,6.884l0.406,88.036
								c0.019,7.641-5.35,16.945-12,20.785l-38.481,21.47c-6.65,3.84-12.057,0.761-12.08-6.88l-0.405-88.039
								c-0.02-7.643,5.352-16.948,12.001-20.788L454.472,371.674z"/>
						</g>
					</g>
				</g>
				<g>
					<g style="enable-background:new    ;">
						<path style="fill:#E2E2E2;" d="M558.486,328.978c-0.004-1.537-0.553-2.62-1.427-3.13l-8.96-5.207
							c0.878,0.509,1.426,1.593,1.43,3.132l0.451,159.722c0.007,3.099-2.186,6.889-4.874,8.44l-138.999,80.253
							c-1.357,0.781-2.589,0.855-3.479,0.339l8.96,5.201c0.889,0.521,2.121,0.451,3.478-0.336l139.001-80.251
							c2.689-1.552,4.881-5.341,4.873-8.441L558.486,328.978z"/>
						<g>
							<path style="fill:#AFAFAF;" d="M553.532,308.06c11.389-6.578,20.692-1.277,20.727,11.812l0.452,159.722
								c0.041,13.088-9.2,29.097-20.596,35.674l-138.998,80.25c-11.392,6.58-20.704,1.285-20.741-11.805l-0.453-159.725
								c-0.037-13.088,9.213-29.101,20.605-35.679L553.532,308.06z M558.94,488.7l-0.453-159.723
								c-0.011-3.101-2.22-4.345-4.907-2.794l-138.998,80.251c-2.696,1.559-4.881,5.341-4.874,8.441l0.453,159.722
								c0.008,3.1,2.208,4.353,4.906,2.795l139.001-80.251C556.756,495.59,558.947,491.801,558.94,488.7L558.94,488.7z"/>
						</g>
						<path style="fill:#E2E2E2;" d="M559.269,301.426c-3.762-2.184-8.968-1.882-14.697,1.428l-138.999,80.252
							c-11.393,6.577-20.643,22.587-20.608,35.676l0.455,159.724c0.019,6.5,2.321,11.074,6.032,13.232l8.961,5.209
							c-3.711-2.157-6.02-6.735-6.036-13.233l-0.453-159.725c-0.037-13.088,9.213-29.101,20.605-35.679l139.003-80.25
							c5.731-3.309,10.935-3.611,14.69-1.428L559.269,301.426z"/>
					</g>
				</g>
				<g>
					<defs>
						<path id="SVGID_00000181768504083166986220000005073786641383040409_" d="M409.696,411.823l0.479,160.75
							c0,0,65.123,145.244,65.123,148.071c0,2.83,248.855-41.715,248.855-41.715L762,454L660.922,285.846L533.22,337.744
							l-114.898,66.725L409.696,411.823z"/>
					</defs>
					<clipPath id="SVGID_00000091001942522535852070000007455145014413211580_">
						<use xlink:href="#SVGID_00000181768504083166986220000005073786641383040409_"  style="overflow:visible;"/>
					</clipPath>
					<g style="clip-path:url(#SVGID_00000091001942522535852070000007455145014413211580_);">
						<g>
							<g style="enable-background:new    ;">
								<g style="enable-background:new    ;">
									<g style="enable-background:new    ;">
										<path style="fill:#AFAFAF;" d="M692.833,523.675L468.485,393.298c0.426,0.247,1.014,0.214,1.657-0.158l224.342,130.374
											C693.84,523.882,693.255,523.92,692.833,523.675L692.833,523.675z"/>
									</g>
								</g>
								<g style="enable-background:new    ;">
									<g style="enable-background:new    ;">
										<path style="fill:#AFAFAF;" d="M694.471,518.168L470.128,387.791c0.653-0.376,1.243-0.41,1.668-0.167l224.345,130.379
											C695.717,517.754,695.124,517.79,694.471,518.168L694.471,518.168z"/>
									</g>
								</g>
								<g style="enable-background:new    ;">
									<g style="enable-background:new    ;">
										<path style="fill:#AFAFAF;" d="M692.833,523.675L468.485,393.298c-0.416-0.242-0.674-0.758-0.678-1.487
											c-0.005-1.485,1.041-3.281,2.32-4.021l224.343,130.377c-1.283,0.738-2.324,2.531-2.319,4.016
											C692.151,522.914,692.405,523.43,692.833,523.675L692.833,523.675z"/>
									</g>
								</g>
								<g>
									<path style="fill:#767676;" d="M694.471,518.168c1.283-0.746,2.346-0.161,2.349,1.321c0,1.472-1.046,3.278-2.335,4.024
										c-1.277,0.741-2.333,0.141-2.333-1.33C692.146,520.699,693.188,518.906,694.471,518.168z"/>
								</g>
								<g style="enable-background:new    ;">
									<g style="enable-background:new    ;">
										<path style="fill:#AFAFAF;" d="M694.441,506.491L470.094,376.114c0.656-0.375,1.245-0.413,1.668-0.164l224.339,130.372
											C695.684,506.078,695.092,506.115,694.441,506.491L694.441,506.491z"/>
									</g>
								</g>
								<g style="enable-background:new    ;">
									<g style="enable-background:new    ;">
										<path style="fill:#AFAFAF;" d="M692.806,511.995L468.457,381.624c-0.418-0.243-0.679-0.759-0.686-1.489
											c-0.002-1.484,1.045-3.281,2.322-4.021l224.348,130.377c-1.289,0.739-2.323,2.534-2.323,4.019
											C692.118,511.239,692.382,511.755,692.806,511.995L692.806,511.995z"/>
									</g>
								</g>
								<g>
									<path style="fill:#767676;" d="M694.441,506.491c1.28-0.745,2.331-0.157,2.344,1.324c0.004,1.471-1.038,3.281-2.336,4.022
										c-1.277,0.743-2.331,0.144-2.331-1.327C692.118,509.025,693.152,507.23,694.441,506.491z"/>
								</g>
								<g style="enable-background:new    ;">
									<g style="enable-background:new    ;">
										<path style="fill:#AFAFAF;" d="M691.016,495.414L466.675,365.04c0.941-0.544,1.792-0.595,2.407-0.238l224.344,130.375
											C692.809,494.818,691.958,494.869,691.016,495.414L691.016,495.414z"/>
									</g>
								</g>
								<g style="enable-background:new    ;">
									<g style="enable-background:new    ;">
										<path style="fill:#AFAFAF;" d="M687.637,501.256L463.304,370.882c-0.007-2.147,1.502-4.762,3.371-5.842l224.341,130.374
											C689.146,496.489,687.635,499.108,687.637,501.256L687.637,501.256z"/>
									</g>
								</g>
								<path style="fill:#919191;" d="M687.637,501.256L463.304,370.882l0.159,56.21c0.015,5.967-4.198,13.262-9.39,16.26
									l-99.878,57.714c-2.613,1.504-4.987,1.643-6.7,0.648l224.344,130.377c1.712,0.991,4.087,0.853,6.698-0.652l99.882-57.712
									c5.192-2.997,9.406-10.295,9.388-16.262L687.637,501.256z"/>
								<path style="fill:#C6C6C6;" d="M562.316,629.961l-0.084-30.048L337.892,469.541l0.083,30.042
									c0.013,5.102,1.822,8.699,4.732,10.39L567.05,640.346C564.144,638.658,562.33,635.06,562.316,629.961z"/>
								<g style="enable-background:new    ;">
									<g style="enable-background:new    ;">
										<path style="fill:#AFAFAF;" d="M562.232,599.913L337.892,469.541c1.278-0.736,2.321-2.545,2.318-4.017
											c-0.003-0.733-0.261-1.25-0.678-1.493l224.345,130.375c0.413,0.241,0.675,0.759,0.677,1.493
											C564.558,597.369,563.513,599.183,562.232,599.913L562.232,599.913z"/>
									</g>
								</g>
								<g style="enable-background:new    ;">
									<g style="enable-background:new    ;">
										<path style="fill:#AFAFAF;" d="M562.218,594.568L337.874,464.192c0.647-0.371,1.232-0.407,1.657-0.161l224.345,130.375
											C563.454,594.16,562.862,594.198,562.218,594.568L562.218,594.568z"/>
									</g>
								</g>
								<g style="enable-background:new    ;">
									<g style="enable-background:new    ;">
										<path style="fill:#DDDDDD;" d="M560.572,600.078L336.224,469.706c-0.415-0.244-0.677-0.757-0.679-1.486
											c-0.003-1.486,1.043-3.282,2.33-4.027l224.343,130.376c-1.288,0.747-2.331,2.541-2.331,4.019
											C559.891,599.32,560.152,599.839,560.572,600.078L560.572,600.078z"/>
									</g>
								</g>
								<g>
									<path style="fill:#767676;" d="M562.218,594.568c1.286-0.738,2.334-0.153,2.336,1.331c0.004,1.47-1.041,3.283-2.321,4.014
										c-1.291,0.748-2.342,0.149-2.346-1.325C559.887,597.109,560.93,595.315,562.218,594.568z"/>
								</g>
								<g>
									<polygon style="fill:#C6C6C6;" points="562.218,594.568 337.874,464.192 337.856,457.865 562.199,588.239 									"/>
								</g>
								<g style="enable-background:new    ;">
									<g style="enable-background:new    ;">
										<path style="fill:#AFAFAF;" d="M562.199,588.239L337.856,457.865c1.281-0.74,2.324-2.545,2.321-4.017
											c-0.004-0.737-0.264-1.248-0.681-1.49l224.347,130.374c0.419,0.242,0.673,0.752,0.679,1.491
											C564.524,585.693,563.484,587.498,562.199,588.239L562.199,588.239z"/>
									</g>
								</g>
								<g style="enable-background:new    ;">
									<g style="enable-background:new    ;">
										<path style="fill:#AFAFAF;" d="M562.185,582.892L337.843,452.52c0.647-0.376,1.232-0.409,1.653-0.161l224.347,130.374
											C563.416,582.484,562.83,582.521,562.185,582.892L562.185,582.892z"/>
									</g>
								</g>
								<g style="enable-background:new    ;">
									<g style="enable-background:new    ;">
										<path style="fill:#DDDDDD;" d="M560.534,588.403L336.193,458.028c-0.418-0.24-0.677-0.755-0.678-1.487
											c-0.006-1.482,1.035-3.279,2.329-4.021l224.341,130.372c-1.287,0.744-2.333,2.542-2.326,4.024
											C559.858,587.646,560.117,588.158,560.534,588.403L560.534,588.403z"/>
									</g>
								</g>
								<g>
									<path style="fill:#767676;" d="M562.185,582.892c1.282-0.742,2.331-0.152,2.337,1.332c0.003,1.47-1.037,3.274-2.322,4.016
										c-1.29,0.747-2.337,0.146-2.341-1.323C559.852,585.434,560.897,583.636,562.185,582.892z"/>
								</g>
								<g>
									<polygon style="fill:#C6C6C6;" points="562.185,582.892 337.843,452.52 337.816,443.375 562.155,573.755 									"/>
								</g>
								<g style="enable-background:new    ;">
									<g style="enable-background:new    ;">
										<path style="fill:#DDDDDD;" d="M562.155,573.755l-224.339-130.38c-0.006-2.15,1.502-4.761,3.374-5.841
											c0.94-0.544,1.789-0.597,2.407-0.235L567.941,567.67c-0.615-0.356-1.469-0.306-2.414,0.239
											C563.663,568.992,562.151,571.599,562.155,573.755L562.155,573.755z"/>
									</g>
								</g>
								<g>
									<path style="fill:#767676;" d="M691.016,495.414c1.867-1.08,3.387-0.217,3.394,1.932l0.032,9.146
										c-1.289,0.739-2.323,2.534-2.323,4.019c0,1.471,1.054,2.07,2.331,1.327l0.022,6.331c-1.283,0.738-2.324,2.531-2.319,4.016
										c0,1.471,1.056,2.071,2.333,1.33l0.085,30.044c0.028,10.268-7.199,22.803-16.134,27.957l-99.877,57.711
										c-8.932,5.161-16.208,0.998-16.242-9.265l-0.084-30.048c1.28-0.73,2.325-2.544,2.321-4.014
										c-0.002-1.484-1.05-2.069-2.336-1.331l-0.019-6.329c1.285-0.741,2.325-2.546,2.322-4.016
										c-0.006-1.484-1.055-2.074-2.337-1.332l-0.029-9.137c-0.004-2.156,1.508-4.763,3.372-5.846
										c1.874-1.081,3.396-0.215,3.401,1.929l0.16,56.214c0.013,5.967,4.251,8.384,9.448,5.387l99.882-57.712
										c5.192-2.997,9.406-10.295,9.388-16.262l-0.17-56.209C687.635,499.108,689.146,496.489,691.016,495.414z"/>
								</g>
							</g>
						</g>
						<g>
							<defs>
								<polygon id="SVGID_00000035493964638933376760000014526077758849780105_" points="343.598,437.299 560.676,563.682 
									637.741,508.163 668.315,461.595 652.763,371.262 627.267,331.997 566.073,335.055 533.22,337.744 495.956,360.043 
									370.148,428.931 								"/>
							</defs>
							<clipPath id="SVGID_00000105408563650065275750000000959407277094817946_">
								<use xlink:href="#SVGID_00000035493964638933376760000014526077758849780105_"  style="overflow:visible;"/>
							</clipPath>
							<g style="clip-path:url(#SVGID_00000105408563650065275750000000959407277094817946_);">
								<g>
									<path style="fill:none;" d="M415.467,535.864c38.188-22.191,76.373-44.384,114.563-66.577
										c-2.447,1.423-5.833,1.224-9.573-0.939c-7.412-4.273-13.433-14.677-13.405-23.218L392.49,511.705
										c-0.024,8.538,5.995,18.941,13.41,23.219C409.635,537.087,413.021,537.288,415.467,535.864z"/>
									<path style="fill:none;" d="M418.737,541.491l114.561-66.577c3.25-1.887,5.264-5.896,5.278-11.58l-114.561,66.574
										C424.002,535.596,421.986,539.606,418.737,541.491z"/>
									<path style="fill:#D3801E;" d="M392.77,447.274L507.33,380.7l-0.279,64.431c-0.027,8.541,5.993,18.944,13.405,23.218
										c3.74,2.162,7.126,2.361,9.573,0.939l-114.563,66.577c-2.445,1.424-5.832,1.223-9.567-0.94
										c-7.415-4.277-13.435-14.681-13.41-23.219L392.77,447.274z"/>
									<path style="fill:none;" d="M503.4,376.54l-114.559,66.574c0.418-0.244,0.997-0.21,1.63,0.158l114.561-66.578
										C504.402,376.329,503.822,376.293,503.4,376.54z"/>
									<g>
										<polygon style="fill:#EFD1B1;" points="495.179,389.674 497.554,391.097 406.771,443.696 407.026,533.608 
											404.655,532.187 404.397,442.27 										"/>
										<g>
											<polygon style="fill:#FFEACF;" points="406.771,443.696 407.026,533.608 497.803,481.013 497.554,391.097 											"/>
										</g>
									</g>
									<g>
										<polygon style="fill:#C9BEB5;" points="513.708,385.996 515.826,387.446 425.045,440.044 425.301,529.96 423.18,528.51 
											422.928,438.598 										"/>
										<g>
											<polygon style="fill:#E2D8CF;" points="425.045,440.044 425.301,529.96 516.08,477.361 515.826,387.446 											"/>
										</g>
									</g>
									<g>
										<polygon style="fill:#EFD1B1;" points="507.619,397.788 509.993,399.21 419.213,451.808 419.466,540.104 417.096,538.678 
											416.841,450.386 										"/>
										<g>
											<polygon style="fill:#FFEACF;" points="419.213,451.808 419.466,540.104 510.244,487.501 509.993,399.21 											"/>
										</g>
									</g>
									<path style="fill:#FFC271;" d="M387.881,509.047c-0.032,11.446,8.038,25.448,18,31.197
										c9.961,5.751,18.105,1.112,18.134-10.336l0.279-63.553l114.557-66.575c0.01-1.479-1.025-3.267-2.313-4.012
										c-0.636-0.367-1.215-0.4-1.632-0.157l-114.556,66.573c0,0.004-0.003,0.004-0.003,0.004c-0.419,0.246-0.679,0.76-0.68,1.497
										l-0.278,63.551c-0.026,8.539-6.064,11.98-13.491,7.688c-7.415-4.277-13.435-14.681-13.41-23.219l0.28-64.431L507.33,380.7
										c0.003-1.484-1.03-3.274-2.297-4.006c-0.631-0.365-1.211-0.401-1.633-0.154l-114.558,66.574l0,0h0h0
										c-0.419,0.24-0.678,0.764-0.682,1.5L387.881,509.047z M389.578,442.967c-0.098-0.012-0.171,0.039-0.259,0.05
										C389.406,443.006,389.48,442.955,389.578,442.967z"/>
									<path style="fill:#F2AB44;" d="M424.016,529.908l0.279-63.553l114.557-66.575l-0.275,63.554
										c-0.015,5.684-2.028,9.693-5.278,11.58l-114.561,66.577C421.986,539.606,424.002,535.596,424.016,529.908z"/>
									<g>
										<path style="fill:#FFC271;" d="M397.329,434.76c0.04-0.196,0.083-0.391,0.133-0.591c0.213-0.832,0.483-1.669,0.842-2.489
											c0-0.006,0.003-0.012,0.009-0.02c0.019-0.044,0.047-0.083,0.066-0.125c0.309-0.683,0.668-1.345,1.063-1.99
											c0.127-0.203,0.255-0.395,0.387-0.592c0.342-0.51,0.705-0.99,1.089-1.454c0.093-0.11,0.164-0.245,0.262-0.35
											c0.053-0.06,0.11-0.106,0.165-0.165c0.323-0.354,0.661-0.675,1.006-0.994c0.158-0.143,0.309-0.301,0.476-0.441
											c0.515-0.432,1.049-0.818,1.605-1.139l17.059-9.85c2.07-1.196,3.939-1.306,5.294-0.517l4.58,2.66
											c-1.35-0.787-3.221-0.672-5.29,0.519l-17.063,9.852c-0.551,0.32-1.085,0.706-1.606,1.139
											c-0.165,0.136-0.316,0.299-0.479,0.448c-0.341,0.313-0.681,0.635-0.998,0.987c-0.149,0.163-0.286,0.341-0.433,0.515
											c-0.381,0.464-0.745,0.948-1.085,1.453c-0.129,0.196-0.262,0.393-0.387,0.597c-0.393,0.639-0.752,1.298-1.06,1.98
											c-0.026,0.05-0.055,0.1-0.078,0.151c-0.358,0.817-0.627,1.651-0.84,2.482c-0.052,0.201-0.095,0.401-0.139,0.599
											c-0.178,0.84-0.3,1.676-0.298,2.477l0.007,2.502l-4.582-2.658l-0.008-2.508
											C397.025,436.436,397.149,435.602,397.329,434.76z"/>
										<g>
											<path style="fill:#D3801E;" d="M409.013,427.074c-4.108,2.373-7.418,8.107-7.404,12.828l0.007,2.502l31.918-18.428
												l-0.004-2.504c-0.011-4.722-3.344-6.621-7.455-4.25L409.013,427.074z"/>
										</g>
									</g>
								</g>
								<g>
									<path style="fill:none;" d="M476.93,556.993c38.178-22.215,76.352-44.425,114.523-66.638
										c-2.44,1.424-5.826,1.226-9.564-0.933c-7.411-4.273-13.445-14.671-13.422-23.213l-114.525,66.64
										c-0.018,8.535,6.006,18.94,13.419,23.205C471.101,558.215,474.485,558.415,476.93,556.993z"/>
									<path style="fill:none;" d="M480.204,562.617l114.527-66.638c3.243-1.887,5.261-5.896,5.273-11.584l-114.526,66.638
										C485.464,556.719,483.451,560.725,480.204,562.617z"/>
									<path style="fill:#D52737;" d="M454.185,468.412l114.525-66.635l-0.244,64.433c-0.023,8.542,6.011,18.94,13.422,23.213
										c3.738,2.158,7.124,2.356,9.564,0.933L476.93,556.993c-2.444,1.422-5.829,1.222-9.569-0.939
										c-7.413-4.266-13.438-14.67-13.419-23.205L454.185,468.412z"/>
									<path style="fill:none;" d="M564.781,397.622l-114.527,66.637c0.42-0.246,1.002-0.213,1.634,0.154l114.533-66.637
										C565.777,397.412,565.2,397.376,564.781,397.622z"/>
									<g>
										<polygon style="fill:#EFD1B1;" points="556.568,410.763 558.94,412.182 468.185,464.826 468.487,554.741 466.117,553.315 
											465.814,463.406 										"/>
										<g>
											<polygon style="fill:#FFEACF;" points="468.185,464.826 468.487,554.741 559.242,502.096 558.94,412.182 											"/>
										</g>
									</g>
									<g>
										<polygon style="fill:#C9BEB5;" points="575.097,407.074 577.214,408.523 486.455,461.168 486.76,551.084 484.642,549.635 
											484.339,459.72 										"/>
										<g>
											<polygon style="fill:#E2D8CF;" points="486.455,461.168 486.76,551.084 577.512,498.435 577.214,408.523 											"/>
										</g>
									</g>
									<g>
										<polygon style="fill:#EFD1B1;" points="569.017,418.867 571.385,420.291 480.631,472.934 480.934,561.227 
											478.559,559.802 478.263,471.512 										"/>
										<g>
											<polygon style="fill:#FFEACF;" points="480.631,472.934 480.934,561.227 571.688,508.58 571.385,420.291 											"/>
										</g>
									</g>
									<path style="fill:#FF777F;" d="M449.331,530.19c-0.023,11.444,8.05,25.444,18.018,31.186
										c9.964,5.748,18.1,1.104,18.13-10.343l0.243-63.554l114.521-66.633c0.006-1.482-1.025-3.273-2.313-4.012
										c-0.635-0.368-1.218-0.399-1.631-0.158L481.777,483.31c-0.001,0.004-0.007,0.004-0.007,0.004
										c-0.42,0.243-0.679,0.761-0.679,1.5l-0.242,63.547c-0.022,8.539-6.055,11.982-13.489,7.694
										c-7.413-4.266-13.438-14.67-13.419-23.205l0.244-64.438l114.525-66.635c0.006-1.48-1.029-3.272-2.29-4.001
										c-0.644-0.364-1.221-0.4-1.64-0.154l-114.527,66.637l0,0l0,0l0,0c-0.416,0.238-0.674,0.758-0.676,1.497L449.331,530.19z
										 M450.994,464.107c-0.1-0.01-0.173,0.04-0.259,0.054C450.821,464.147,450.895,464.098,450.994,464.107z"/>
									<path style="fill:#F34B52;" d="M485.478,551.033l0.243-63.554l114.521-66.633l-0.237,63.549
										c-0.013,5.688-2.03,9.697-5.273,11.584l-114.527,66.638C483.451,560.725,485.464,556.719,485.478,551.033z"/>
									<g>
										<path style="fill:#FF777F;" d="M458.737,455.897c0.042-0.196,0.084-0.39,0.137-0.588c0.212-0.835,0.479-1.672,0.842-2.489
											c0.002-0.011,0-0.015,0.006-0.024c0.02-0.045,0.05-0.082,0.071-0.124c0.303-0.681,0.661-1.344,1.058-1.988
											c0.127-0.204,0.257-0.395,0.387-0.597c0.34-0.504,0.708-0.987,1.088-1.452c0.09-0.114,0.167-0.245,0.265-0.351
											c0.052-0.061,0.11-0.104,0.163-0.164c0.319-0.355,0.66-0.676,1.001-0.99c0.163-0.148,0.312-0.305,0.479-0.445
											c0.516-0.433,1.054-0.821,1.602-1.138l17.057-9.86c2.07-1.195,3.939-1.31,5.296-0.52l4.578,2.656
											c-1.35-0.785-3.218-0.67-5.287,0.523l-17.059,9.857c-0.551,0.324-1.086,0.709-1.602,1.143
											c-0.169,0.133-0.318,0.297-0.48,0.449c-0.346,0.313-0.682,0.632-1.001,0.985c-0.147,0.164-0.286,0.345-0.43,0.517
											c-0.383,0.465-0.742,0.946-1.085,1.451c-0.132,0.201-0.265,0.394-0.388,0.596c-0.393,0.641-0.752,1.303-1.059,1.981
											c-0.025,0.051-0.054,0.103-0.079,0.153c-0.355,0.815-0.624,1.652-0.835,2.484c-0.053,0.199-0.099,0.399-0.142,0.602
											c-0.173,0.837-0.3,1.673-0.3,2.473l0.014,2.5l-4.585-2.655l-0.009-2.509C458.436,457.575,458.56,456.739,458.737,455.897z
											"/>
										<g>
											<path style="fill:#D52737;" d="M470.419,448.203c-4.108,2.378-7.416,8.114-7.4,12.834l0.014,2.5l31.908-18.441
												l-0.005-2.508c-0.014-4.719-3.348-6.617-7.458-4.242L470.419,448.203z"/>
										</g>
									</g>
								</g>
								<g>
									<path style="fill:none;" d="M517.113,590.247c38.188-22.187,76.374-44.382,114.563-66.573
										c-2.444,1.423-5.834,1.221-9.573-0.939c-7.411-4.275-13.435-14.678-13.402-23.219L494.135,566.09
										c-0.025,8.538,5.997,18.942,13.408,23.219C511.281,591.472,514.671,591.671,517.113,590.247z"/>
									<path style="fill:none;" d="M520.386,595.874l114.559-66.577c3.248-1.884,5.266-5.892,5.276-11.581l-114.556,66.578
										C525.649,589.979,523.634,593.987,520.386,595.874z"/>
									<path style="fill:#0BB55F;" d="M494.416,501.659l114.562-66.576l-0.278,64.433c-0.033,8.541,5.991,18.943,13.402,23.219
										c3.739,2.16,7.129,2.362,9.573,0.939l-114.563,66.573c-2.442,1.424-5.832,1.225-9.57-0.938
										c-7.411-4.276-13.434-14.681-13.408-23.219L494.416,501.659z"/>
									<path style="fill:none;" d="M605.047,430.923l-114.559,66.574c0.416-0.244,0.998-0.207,1.63,0.158l114.565-66.575
										C606.046,430.715,605.465,430.681,605.047,430.923z"/>
									<g>
										<polygon style="fill:#EFD1B1;" points="596.826,444.058 599.199,445.482 508.419,498.076 508.672,587.995 506.305,586.57 
											506.045,496.658 										"/>
										<g>
											<polygon style="fill:#FFEACF;" points="508.419,498.076 508.672,587.995 599.448,535.398 599.199,445.482 											"/>
										</g>
									</g>
									<g>
										<polygon style="fill:#C9BEB5;" points="615.357,440.381 617.474,441.83 526.69,494.429 526.946,584.343 524.831,582.896 
											524.575,492.98 										"/>
										<g>
											<polygon style="fill:#E2D8CF;" points="526.69,494.429 526.946,584.343 617.726,531.749 617.474,441.83 											"/>
										</g>
									</g>
									<g>
										<polygon style="fill:#EFD1B1;" points="609.271,452.174 611.635,453.596 520.86,506.194 521.113,594.484 518.742,593.06 
											518.492,504.77 										"/>
										<g>
											<polygon style="fill:#FFEACF;" points="520.86,506.194 521.113,594.484 611.891,541.89 611.635,453.596 											"/>
										</g>
									</g>
									<path style="fill:#50D696;" d="M489.529,563.431c-0.032,11.444,8.036,25.448,17.998,31.2
										c9.962,5.751,18.104,1.107,18.138-10.337l0.279-63.554l114.552-66.576c0.004-1.478-1.021-3.268-2.304-4.01
										c-0.646-0.368-1.224-0.402-1.631-0.158l-114.565,66.57c0,0.007-0.005,0.007-0.005,0.007
										c-0.418,0.242-0.677,0.757-0.677,1.499l-0.278,63.55c-0.024,8.536-6.063,11.98-13.493,7.687
										c-7.411-4.276-13.434-14.681-13.408-23.219l0.281-64.431l114.562-66.576c0.005-1.481-1.033-3.271-2.295-4.003
										c-0.638-0.365-1.219-0.399-1.637-0.157l-114.559,66.574l0,0l0,0l0,0c-0.419,0.243-0.678,0.764-0.683,1.5L489.529,563.431z
										 M491.222,497.35c-0.095-0.014-0.169,0.046-0.257,0.051C491.053,497.396,491.127,497.336,491.222,497.35z"/>
									<path style="fill:#2ACE83;" d="M525.665,584.294l0.279-63.554l114.552-66.576l-0.275,63.552
										c-0.011,5.689-2.028,9.697-5.276,11.581l-114.559,66.577C523.634,593.987,525.649,589.979,525.665,584.294z"/>
									<g>
										<path style="fill:#50D696;" d="M498.975,489.145c0.043-0.197,0.081-0.391,0.135-0.59c0.213-0.831,0.48-1.671,0.841-2.488
											c0.001-0.011,0.004-0.014,0.009-0.021c0.018-0.045,0.051-0.085,0.07-0.125c0.305-0.684,0.665-1.348,1.059-1.989
											c0.128-0.204,0.256-0.396,0.389-0.595c0.338-0.505,0.704-0.992,1.089-1.454c0.093-0.112,0.167-0.242,0.262-0.35
											c0.05-0.061,0.113-0.104,0.167-0.164c0.32-0.353,0.662-0.676,1.004-0.99c0.161-0.146,0.308-0.308,0.472-0.444
											c0.52-0.434,1.056-0.821,1.609-1.141l17.057-9.851c2.07-1.195,3.938-1.305,5.299-0.52l4.579,2.664
											c-1.352-0.788-3.224-0.673-5.292,0.522l-17.064,9.851c-0.55,0.315-1.083,0.707-1.602,1.14
											c-0.165,0.133-0.318,0.296-0.479,0.447c-0.342,0.313-0.683,0.634-1,0.983c-0.146,0.166-0.286,0.348-0.434,0.518
											c-0.385,0.461-0.744,0.945-1.084,1.452c-0.131,0.198-0.265,0.391-0.389,0.595c-0.397,0.641-0.751,1.298-1.059,1.983
											c-0.026,0.052-0.055,0.099-0.082,0.149c-0.357,0.818-0.622,1.653-0.838,2.483c-0.052,0.202-0.094,0.4-0.138,0.603
											c-0.179,0.835-0.299,1.671-0.298,2.472l0.005,2.504l-4.581-2.663l-0.008-2.506
											C498.67,490.819,498.796,489.986,498.975,489.145z"/>
										<g>
											<path style="fill:#0BB55F;" d="M510.657,481.46c-4.105,2.372-7.414,8.107-7.401,12.826l0.005,2.504l31.921-18.43
												l-0.005-2.504c-0.012-4.723-3.344-6.619-7.455-4.247L510.657,481.46z"/>
										</g>
									</g>
								</g>
							</g>
						</g>
						<g>
							<g style="enable-background:new    ;">
								<path style="fill:#60D4F4;" d="M696.754,425.394c-2.218-1.292-5.296-1.108-8.691,0.852l-132.859,76.706
									c-6.749,3.896-12.199,13.34-12.178,21.092l0.433,152.661c0.013,3.854,1.369,6.557,3.561,7.837l9.539,6.156
									c-2.19-1.277-3.553-3.987-3.56-7.842l-0.435-152.657c-0.025-7.758,5.429-17.197,12.178-21.092l132.858-76.704
									c3.398-1.965,6.473-2.146,8.694-0.854L696.754,425.394z"/>
								<g>
									<path style="fill:#009EC9;" d="M697.601,432.402c6.748-3.898,12.233-0.771,12.253,6.983l0.438,152.663
										c0.019,7.754-5.429,17.197-12.175,21.093l-132.863,76.699c-6.75,3.898-12.232,0.771-12.254-6.985l-0.435-152.657
										c-0.025-7.758,5.429-17.197,12.178-21.092L697.601,432.402z"/>
								</g>
							</g>
						</g>
					</g>
				</g>
				<g>
					<g>
						<g>
							<g>
								<g style="enable-background:new    ;">
									<path style="fill:#88E0FF;" d="M618.547,604.726c-2.268-1.321-5.409-1.132-8.874,0.87
										c-6.892,3.981-12.466,13.628-12.446,21.552c0.013,3.933,1.401,6.701,3.641,8l3.875,2.208
										c-2.241-1.301-3.63-4.067-3.64-8.003c-0.024-7.923,5.549-17.573,12.442-21.549c3.466-2.005,6.608-2.187,8.877-0.872
										L618.547,604.726z"/>
									<g>
										<path style="fill:#00AFD8;" d="M613.545,607.804c6.89-3.976,12.495-0.784,12.517,7.142
											c0.024,7.918-5.542,17.559-12.435,21.54c-6.892,3.977-12.504,0.789-12.523-7.133
											C601.078,621.43,606.651,611.779,613.545,607.804z"/>
									</g>
								</g>
							</g>
							<g>
								<g style="enable-background:new    ;">
									<path style="fill:#BCBCBC;" d="M620.067,611.993c-1.458-0.847-3.482-0.727-5.712,0.559
										c-4.433,2.56-8.017,8.767-8.004,13.868c0.007,2.525,0.901,4.306,2.343,5.144l2.226,1.26
										c-1.442-0.843-2.336-2.62-2.345-5.149c-0.011-5.098,3.574-11.307,8.007-13.864c2.232-1.289,4.254-1.407,5.711-0.558
										L620.067,611.993z"/>
									<g>
										<path style="fill:#DDDDDD;" d="M616.582,613.81c4.434-2.56,8.038-0.506,8.053,4.591
											c0.014,5.095-3.566,11.302-8.001,13.862c-4.434,2.558-8.042,0.504-8.059-4.589
											C608.565,622.577,612.149,616.368,616.582,613.81z"/>
									</g>
								</g>
							</g>
						</g>
						<path style="opacity:0.4;fill:#E3FBFF;" d="M601.102,629.352c-0.024-7.923,5.549-17.573,12.442-21.549
							c3.107-1.794,5.947-2.118,8.139-1.218c-2.316-2.173-5.972-2.342-10.098,0.022c-6.975,3.996-12.616,13.69-12.596,21.653
							c0.016,4.667,1.985,7.685,5.011,8.583C602.198,635.394,601.112,632.834,601.102,629.352z"/>
					</g>
					<g>
						<g>
							<g>
								<g style="enable-background:new    ;">
									<path style="fill:#88E0FF;" d="M685.997,565.86c-2.269-1.321-5.409-1.137-8.874,0.868
										c-6.893,3.977-12.467,13.627-12.446,21.549c0.011,3.936,1.4,6.702,3.639,8.002l3.876,2.209
										c-2.24-1.303-3.63-4.071-3.641-8.002c-0.021-7.924,5.551-17.573,12.443-21.548c3.468-2.007,6.607-2.189,8.877-0.874
										L685.997,565.86z"/>
									<g>
										<path style="fill:#00AFD8;" d="M680.994,568.938c6.891-3.982,12.495-0.791,12.518,7.14
											c0.025,7.917-5.542,17.56-12.435,21.541c-6.891,3.978-12.502,0.789-12.525-7.133
											C668.529,582.563,674.102,572.913,680.994,568.938z"/>
									</g>
								</g>
							</g>
							<g>
								<g style="enable-background:new    ;">
									<path style="fill:#BCBCBC;" d="M687.519,573.126c-1.463-0.849-3.483-0.729-5.711,0.559
										c-4.435,2.56-8.022,8.767-8.008,13.868c0.009,2.528,0.903,4.307,2.342,5.145l2.227,1.256
										c-1.438-0.837-2.332-2.618-2.344-5.148c-0.011-5.094,3.576-11.305,8.008-13.861c2.231-1.289,4.254-1.406,5.712-0.56
										L687.519,573.126z"/>
									<g>
										<path style="fill:#DDDDDD;" d="M684.032,574.943c4.432-2.563,8.039-0.506,8.054,4.592c0.012,5.093-3.57,11.3-8.002,13.862
											c-4.432,2.558-8.044,0.504-8.06-4.593C676.014,583.711,679.601,577.5,684.032,574.943z"/>
									</g>
								</g>
							</g>
						</g>
						<path style="opacity:0.4;fill:#E3FBFF;" d="M668.551,590.486c-0.021-7.924,5.551-17.573,12.443-21.548
							c3.107-1.798,5.946-2.12,8.136-1.22c-2.313-2.173-5.971-2.345-10.095,0.021c-6.977,3.994-12.616,13.688-12.597,21.652
							c0.016,4.668,1.986,7.683,5.013,8.586C669.648,596.527,668.561,593.964,668.551,590.486z"/>
					</g>
					<g>
						<g style="enable-background:new    ;">
							<path style="fill:#AFAFAF;" d="M695.501,591.822c-0.007-1.234-0.816-2.466-2.429-3.403l-9.427-5.48
								c-0.587-0.341-0.875-0.784-0.879-1.228l0.019,6.548c0.005,0.444,0.294,0.887,0.872,1.228l9.435,5.479
								c1.613,0.938,2.424,2.171,2.426,3.4L695.501,591.822z"/>
							<g>
								<path style="fill:#CECECE;" d="M615.297,619.937c-1.181,0.679-1.181,1.785-0.008,2.469l9.428,5.479
									c5.59,3.247,14.719,3.253,20.355,0l52.208-30.146c5.629-3.248,5.658-8.539,0.068-11.787l-9.432-5.479
									c-1.17-0.682-3.083-0.688-4.259-0.004c-1.183,0.684-1.188,1.791-0.013,2.472l9.427,5.48
									c3.248,1.889,3.235,4.963-0.039,6.849l-52.212,30.147c-3.275,1.891-8.59,1.891-11.839,0.003l-9.426-5.479
									C618.385,619.258,616.477,619.255,615.297,619.937z"/>
							</g>
							<path style="fill:#AFAFAF;" d="M701.519,591.804c0.004,2.149-1.408,4.3-4.239,5.934l-52.208,30.146
								c-5.637,3.253-14.766,3.247-20.355,0l-9.428-5.479c-0.585-0.342-0.879-0.788-0.881-1.23l0.021,6.548
								c0.002,0.442,0.293,0.887,0.878,1.224l9.428,5.484c5.589,3.248,14.72,3.25,20.352,0l52.213-30.147
								c2.833-1.634,4.247-3.786,4.239-5.938L701.519,591.804z"/>
						</g>
					</g>
				</g>
				<g>
					<g style="enable-background:new    ;">
						<g style="enable-background:new    ;">
							<g style="enable-background:new    ;">
								<path style="fill:#88E0FF;" d="M658.249,540.407l-4.23-2.456c0.084-0.046,0.153-0.16,0.153-0.263l4.227,2.456
									C658.4,540.247,658.328,540.361,658.249,540.407L658.249,540.407z"/>
							</g>
						</g>
						<g>
							<polygon style="fill:#497888;" points="658.4,540.144 654.173,537.688 654.08,504.538 658.303,506.991 							"/>
						</g>
						<g style="enable-background:new    ;">
							<g style="enable-background:new    ;">
								<path style="fill:#88E0FF;" d="M658.303,506.991l-4.223-2.453c0-0.049-0.019-0.084-0.045-0.1l4.223,2.457
									C658.286,506.909,658.303,506.945,658.303,506.991L658.303,506.991z"/>
							</g>
						</g>
						<g style="enable-background:new    ;">
							<g style="enable-background:new    ;">
								<path style="fill:#E2E2E2;" d="M658.15,506.902l-4.224-2.452c0.04-0.025,0.077-0.025,0.108-0.012l4.223,2.457
									C658.231,506.877,658.193,506.88,658.15,506.902L658.15,506.902z"/>
							</g>
						</g>
						<g>
							<polygon style="fill:#75C1DB;" points="621.068,561.872 616.845,559.416 654.019,537.951 658.249,540.407 							"/>
						</g>
						<g style="enable-background:new    ;">
							<g style="enable-background:new    ;">
								<path style="fill:#88E0FF;" d="M620.951,561.888l-4.225-2.455c0.031,0.014,0.068,0.011,0.118-0.017l4.224,2.456
									C621.021,561.9,620.981,561.905,620.951,561.888L620.951,561.888z"/>
							</g>
						</g>
						<g style="enable-background:new    ;">
							<g style="enable-background:new    ;">
								<path style="fill:#E2E2E2;" d="M620.951,561.888l-4.225-2.455c-0.026-0.018-0.046-0.052-0.046-0.101l4.227,2.458
									C620.907,561.837,620.924,561.872,620.951,561.888L620.951,561.888z"/>
							</g>
						</g>
						<g>
							<polygon style="fill:#C2C2C2;" points="620.973,528.369 616.747,525.915 653.927,504.45 658.15,506.902 							"/>
						</g>
						<g>
							<polygon style="fill:#797979;" points="620.907,561.79 616.681,559.332 616.586,526.182 620.815,528.64 							"/>
						</g>
						<g style="enable-background:new    ;">
							<g style="enable-background:new    ;">
								<path style="fill:#E2E2E2;" d="M620.815,528.64l-4.229-2.458c0-0.095,0.072-0.22,0.161-0.267l4.226,2.454
									C620.882,528.422,620.815,528.543,620.815,528.64L620.815,528.64z"/>
							</g>
						</g>
						<g>
							<path style="fill:#DDDDDD;" d="M658.15,506.902c0.084-0.046,0.152-0.004,0.152,0.089l0.098,33.153
								c0,0.103-0.072,0.217-0.151,0.263l-37.181,21.465c-0.092,0.052-0.161,0.019-0.161-0.082l-0.093-33.15
								c0-0.097,0.067-0.218,0.158-0.271L658.15,506.902z"/>
						</g>
						<g>
							<path style="fill:#BCBCBC;" d="M658.15,537.884c0.084-0.049,0.152-0.007,0.152,0.086l0.098,2.175
								c0,0.103-0.072,0.217-0.151,0.263l-37.181,21.465c-0.092,0.052-0.161,0.019-0.161-0.082l-0.093-2.177
								c0-0.093,0.067-0.215,0.158-0.264L658.15,537.884z"/>
						</g>
						<g>
							<path style="fill:#BCBCBC;" d="M658.15,506.902c0.084-0.046,0.152-0.004,0.152,0.089l0.098,33.153
								c0,0.103-0.072,0.217-0.151,0.263l-1.349,0.841c-0.087,0.053-0.16,0.021-0.16-0.081l-0.094-33.156
								c0-0.094,0.069-0.217,0.156-0.267L658.15,506.902z"/>
						</g>
						<g>
							<path style="fill:#00AFD8;" d="M658.136,501.163c2.841-1.64,5.165-0.32,5.17,2.941l0.095,33.15
								c0.011,3.264-2.3,7.264-5.137,8.901l-37.181,21.466c-2.845,1.639-5.16,0.315-5.172-2.948l-0.091-33.151
								c-0.012-3.263,2.294-7.252,5.138-8.892L658.136,501.163z M658.4,540.144l-0.098-33.153c0-0.093-0.068-0.135-0.152-0.089
								l-37.178,21.467c-0.091,0.053-0.158,0.174-0.158,0.271l0.093,33.15c0,0.101,0.069,0.134,0.161,0.082l37.181-21.465
								C658.328,540.361,658.4,540.247,658.4,540.144L658.4,540.144z"/>
						</g>
						<path style="fill:#88E0FF;" d="M657.578,498.353c-0.938-0.545-2.237-0.475-3.67,0.355l-37.178,21.466
							c-2.845,1.64-5.145,5.63-5.137,8.892l0.092,33.152c0.004,1.622,0.58,2.767,1.508,3.303l4.223,2.458
							c-0.923-0.538-1.5-1.682-1.505-3.305l-0.091-33.151c-0.012-3.263,2.294-7.252,5.138-8.892l37.178-21.468
							c1.43-0.822,2.728-0.903,3.668-0.356L657.578,498.353z"/>
					</g>
				</g>
			</g>
		</g>
		<g>
			<defs>
				<path id="SVGID_00000065057230616893390660000011991399392603240631_" d="M683.873,224.422l-210.247-8.489l-30.035,264.439
					l99.442,46.307l-0.008-2.636c-0.021-7.752,5.429-17.196,12.178-21.092l132.859-76.706c3.396-1.96,6.474-2.143,8.691-0.852
					l9.541,6.154c-0.012-0.007-0.021-0.009-0.032-0.016c2.21,1.268,3.582,3.983,3.591,7.854l0.438,152.663
					c0.008,3.575-1.154,7.506-3.063,11.091l40.632,18.921L782,432L683.873,224.422z"/>
			</defs>
			<clipPath id="SVGID_00000101791447072078597560000017851494900790074501_">
				<use xlink:href="#SVGID_00000065057230616893390660000011991399392603240631_"  style="overflow:visible;"/>
			</clipPath>
			<g style="clip-path:url(#SVGID_00000101791447072078597560000017851494900790074501_);">
				<g>
					<g>
						<g>
							<polygon style="fill:#231F20;" points="719.132,561.082 712.801,559.044 720.157,553.497 							"/>
							<g>
								<path style="opacity:0.29;fill:#231F20;" d="M734.871,551.301c4.419,6.925-21.042,22.018-31.644,27.007
									c-16.151,7.607-22.847-0.942-36.565-14.354c-7.73-7.555-46.219-5.153-57.445-9.833
									c-11.227-4.677-1.629-17.039,33.058-23.387C689.989,522.003,734.871,551.301,734.871,551.301z"/>
								<g>
									<g>
										<polygon style="fill:#231F20;" points="640.147,549.44 649.091,554.543 649.386,547.903 634.943,547.47 										"/>
										<g>
											<path style="fill:#231F20;" d="M637.24,529.703l-5.118,4.096c0,0-23.282,10.452-24.779,10.943
												c-0.986,0.32-2.659,1.498-2.672,3.291c-0.003,0.713,0.021,1.161,0.443,1.824c1.515,2.328,4.747,3.451,7.761,4.099
												c6.573,1.418,21.096-0.843,21.096-0.843c1.615-0.708,11.06-2.053,11.834-2.616c0,0,2.893-0.007,3.465,1.225
												c0.202,0.439-0.154,2.415-0.216,2.821l8.735-3.118c0.446-0.2,1.439-4.312,1.734-6.148l1.924-12.185L637.24,529.703z"/>
											<g>
												<path style="fill:#60605D;" d="M605.102,548.86c1.988,2.67,5.058,3.727,8.062,4.433
													c9.812,2.295,23.749-2.331,23.749-2.331c4.183-1.316,8.355-2.054,9.61-1.928c0,0,2.972,0.397,2.8,2.648
													c-0.039,0.47,0.172,0.139,0.078,0.656c0.018-0.26,0.009-0.489-0.043-0.605c-0.565-1.229-2.257-1.1-2.257-1.1
													c-1.981-0.059-2.981,0.184-8.882,1.72c0,0-13.686,4.659-23.367,3.282c-3.057-0.432-8.176-2.413-9.887-5.301
													c-0.297-0.491-0.628-1.727-0.223-2.559C604.779,547.924,605.008,548.737,605.102,548.86z"/>
												<path style="fill:#60605D;" d="M649.077,550.693l9.857-2.767c0,0-0.93,3.581-1.054,3.515l-8.827,3.102
													C649.093,554.251,649.016,551.457,649.077,550.693z"/>
											</g>
										</g>
									</g>
									<path style="fill:#141413;" d="M635.818,374.987c0,0-2.646,55.805-3.177,69.612c-0.623,16.264-2.477,84.892-2.477,84.892
										c-0.157,5.203-0.789,6.322,0.883,7.909c6.248,5.923,26.553,16.142,28.922,4.915l19.37-151.35L635.818,374.987z"/>
									<path style="fill:#231F20;" d="M702.135,544.177l-14.931,13.014c0,0-7.551,6.289-10.344,7.982
										c-1.259,0.764-2.115,2.423-2.178,4.023c-0.04,1.023,0.245,2.02,0.954,2.748c1.812,1.856,5.487,3.265,8.511,3.891
										c8.949,1.866,17.893-3.839,17.893-3.839c1.466-0.975,11.403-7.644,12.135-8.254c2.065-1.729,3.954-2.427,4.732-1.307
										c0,0-0.049,2.771-0.039,3.171l8.33-5.954c0,0,0.488-3.149,0.455-5.005l-0.227-12.337L702.135,544.177z"/>
									<g>
										<path style="fill:#60605D;" d="M674.683,569.599c1.874,2.777,6.51,4.151,9.509,4.893
											c10.533,2.59,18.095-3.784,18.095-3.784c2.851-1.83,10.807-7.11,11.607-7.571c0,0,4.602-3.576,4.904-0.854
											c0.048,0.462,0.127,0.558,0.125,1.082c-0.032-0.266-0.198-0.466-0.24-0.585c-0.609-1.779-5.232,1.753-5.232,1.753
											c-0.669,0.685-9.711,7.077-11.172,8.049c0,0-8.433,6.733-18.433,3.94c-2.97-0.826-6.737-1.934-8.613-4.704
											C674.721,571.065,674.596,569.465,674.683,569.599z"/>
										<path style="fill:#60605D;" d="M718.797,562.281c0,0,3.963-2.288,5.312-2.992c3.152-1.665,3.518-2.856,3.518-2.856
											s-0.194,3.534-0.33,3.487c0,0-0.085,0.981-1.883,2.095c-1.634,1.008-6.556,3.589-6.556,3.589L718.797,562.281z"/>
									</g>
									<path style="fill:#383736;" d="M652.605,381.851c0,0,17.305,94.684,19.367,103.246
										c6.561,27.226,21.892,62.645,21.892,62.645c0.931,3.624,2.806,4.388,6.131,5.227c20.282,5.114,27.639-4.637,27.639-4.637
										c1.25-1.176,0.892-2.107,0.705-3.403c0,0-11.592-28.852-18.185-67.183c-4.03-23.468-2.565-53.316-6.058-73.981
										c-0.737-4.364-9.105-23.868-9.105-23.868L652.605,381.851z"/>
									<g>
										<path style="fill:#141413;" d="M542.255,404.32c4.797,8.032,12.204,8.246,12.204,8.246s31.588-22.56,40.34-35.307
											c7.346-10.707,12.462-35.525,12.462-35.525s11.087-21.353,1.426-29.349c-5.522-4.575-16.837-8.376-23.078,5.969
											c-2.882,6.6-5.562,37.818-11.292,47.788c-5.993,10.41-33.53,31.103-33.53,31.103S540.225,400.913,542.255,404.32z"/>
										<path style="fill:#EDEDED;" d="M626.428,297.624c0,0-11.789-4.115-17.459-2.035c-5.664,2.08-18.63,14.755-18.63,14.755
											s6.59,22.18,7.466,23.322c0.875,1.144,40.774,64.254,40.774,64.254s4.682,4.502,13.826,2.589
											c8.468-1.777,21.027-4.628,29.875-14.445C690.525,376.915,626.428,297.624,626.428,297.624z"/>
										<path style="fill:#E8C5AC;" d="M600.246,313.478c12.521,1.13,11.51-10.716,11.595-19.695l-14.829-19.762l-12.905,19.098
											L600.246,313.478z"/>
										<path style="fill:#FFE8D9;" d="M582.219,268.722c-3.987,3.062-1.496,7.232-1.496,7.232l6.148,8.019
											c0,0,1.536,1.589,3.273,0.749c2.629-1.282,2.085-4.022,1.426-6.986c-0.034-0.169-1.214-4.381-1.283-4.634
											C589.302,269.518,585.995,265.819,582.219,268.722z"/>
										<g>
											<path style="fill:#282827;" d="M638.624,367.709c-6.411-13.124-25.684-40.7-20.464-57.495
												c3.163-10.174-1.819-15.968-1.962-15.858c-1.774,0.004,25.643,2.381,37.203,12.336
												c15.673,13.493,40.503,59.493,40.503,59.493l9.813,26.474c1.286,5.303,0.955,9.886-6.331,17.056
												c-4.447,4.374-16.057,12.472-23.924,14.007L638.624,367.709z"/>
											<path style="fill:#282827;" d="M586.597,317.151c-0.26-3.41,6.136-13.749,6.792-14.698
												c-1.363,5.756,3.535,22.843,11.05,33.698c3.277,4.734,15.061,28.761,19.685,33.024l29.826,55.117
												c-3.708,0.012-12.339-2.693-12.339-2.693c-3.833-1.876-5.456-5.515-7.228-7.825l-26.789-51.33
												C599.654,348.423,587.102,323.915,586.597,317.151z"/>
										</g>
										<path style="fill:#FF5E48;" d="M608.667,326.01c-0.348-0.84-0.76-1.378-1.527-2.103l-2.438-2.174l-0.65-8.27l2.038-1.007
											l5.754,5.497l-0.549,4.165c-0.169,0.942,0.313,2.682,0.901,3.39c0,0,10.417,28.604,29.258,54.17
											c1.999,2.713,4.739,13.781,4.739,13.781s-9.255-7.227-11.85-10.492C624.892,371.098,608.667,326.01,608.667,326.01z"/>
										<path style="fill:#7A797A;" d="M593.353,307.606l-3.862-1.034c0,0-0.725,1.863-0.827,2.334
											c-0.332,1.585,0.646,5.861,0.646,5.861l2.97,14.063c0.743,2.153,1.172,3.155,3.148,4.109l5.386,1.526l-0.579,5.443
											c-0.409,3.48,1.03,4.69,3.279,6.839l20.609,22.428c0,0-12.073-20.159-16.98-28.555
											C596.184,321.85,593.353,307.606,593.353,307.606z"/>
										<path style="fill:#FFFFFF;" d="M603.553,312.529c1.619,0.016,1.71,1.714,1.763,2.891l0.291,7.322
											c0.018,2.243-1.7,1.036-2.886-0.428l-8.294-10.801c-4.57-7.23-1.694-8.111-1.694-8.111s0.79,0.356,1.746,1.837
											C596.065,307.705,598.019,312.476,603.553,312.529z"/>
										<path style="fill:#FFFFFF;" d="M608.172,288.999c0,0,1.262,0.904,1.715,3.053c1.852,8.707-4.756,19.651-4.756,19.651
											c-0.801,1.291-0.324,1.805,1.334,3.572l6.508,6.087c1.602,1.69,2.406,0.764,2.546-0.555c0,0,2.421-12.035,2.83-15.765
											c0.955-8.762,1.31-8.558-5.45-13.433C608.821,288.672,608.172,288.999,608.172,288.999z"/>
										<path style="fill:#7A797A;" d="M613.227,291.526l5.329,1.183c0,0,1.614,0.386,2.07,0.629
											c1.524,0.81,1.925,2.659,1.925,2.659l2.248,21.271c1.165,2.849,1.394,3.964-0.142,5.646l-3.987,6.152l7.093,3.459
											c2.658,1.249,2.98,3.49,3.651,5.798l9.386,33.737c0,0-20.678-32.025-26.88-54.55
											C611.61,309.111,613.227,291.526,613.227,291.526z"/>
										<path style="fill:#E2E2E2;" d="M540.786,397.243c0,0,5.808-3.339,10.588,1.717c4.778,5.056,5.953,11.336,4.485,12.661
											c-1.463,1.327-1.4,0.944-1.4,0.944s-2.226,0.02-2.813-0.407C551.063,411.732,539.498,408.338,540.786,397.243z"/>
										<g>
											<path style="fill:#FFE1CC;" d="M566.398,261.894l0.004,0.01l16.639-10.046l18.032,28.994
												c1.025,2.19,1.977,3.35,2.699,5.293c0.797,2.135,1.01,4.438-0.248,7.613c0,0-7.359,15.107-10.61,17.539
												c-1.961,1.461-4.811,2.462-8.398,0.846c-1.696-0.767-1.117-0.214-6.39-3.439c-3.134-1.92-5.66-4.188-6.878-5.827
												l-12.876-18.19l-7.748-10.989L566.398,261.894z"/>
											<path style="fill:#543211;" d="M547.021,269.355c-0.592,2.809,0.018,2.099,6.055,8.621
												c0.438,0.472,1.902,1.917,1.843,1.81c-3.015-5.276-3.108-8.217-0.519-7.75c5.85,1.062,13.165,2.862,16.249,3.602
												c2.322,0.557,3.134-1.214,4.065-3.515c0.979-2.404,1.146-3.106,1.873-3.566c3.896-2.445,5.716,1.646,8.598,5.137
												l3.184,3.479c3.917,2.297,3.748-1.051,3.259-2.747c0,0-1.693-3.165,2.367-4.906c3.475-1.49,5.63,7.43,5.679,7.924
												c0,0,6.022,9.686,5.807,7.641c-0.844-8.018-1.576-16.083-1.938-18.481c-4.098-26.878-30.959-33.091-47.873-14.148
												C552.508,255.998,547.021,269.355,547.021,269.355z"/>
											<path style="fill:#FFE1CC;" d="M593.182,269.59c-4.296,2.621-2.262,7.039-2.262,7.039l5.254,8.625
												c0,0,1.354,1.753,3.171,1.096c2.752-0.99,2.512-3.771,2.171-6.789c-0.018-0.175-0.733-4.489-0.779-4.749
												C600.137,271.146,597.247,267.116,593.182,269.59z"/>
										</g>
										<path style="fill:#E8C5AC;" d="M548.429,399.84c0,0-12.238,0.292-15.832,1.237c-3.592,0.95-9.984,17.695-6.243,18.41
											c1.521,0.291,2.913-1.515,8.174-4.08c2.114-1.032,17.274-3.934,17.972-6.583
											C553.675,404.329,548.429,399.84,548.429,399.84z"/>
										<path style="fill:#EACEB5;" d="M539.66,403.282c0,0-6.773,4.076-7.873,4.835c-1.106,0.758-3.292,6.096-3.737,6.952
											c-0.529,1.021-0.936,1.385,0.398,1.929c1.01,0.412,2.889,0.259,4.43-1.936c1.54-2.196,2.324-3.116,2.324-3.116
											s3.341,0.533,6.303,0.179c2.974-0.354,6.591-2.188,7.238-4.477C549.605,404.586,546.806,400.099,539.66,403.282z"/>
										<path style="fill:#FFE8D9;" d="M604.32,420.629l-5.538-3.33l-6.299,0.556c0,0-3.181,1.25-5.247,7.671
											c-2.153,6.686-18.61,12.646-16.811,14.072c1.306,1.036,10.265,2.803,13.924,1.717c9.198-2.73,15.729-12.089,15.729-12.089
											C602.646,425.797,606.641,423.859,604.32,420.629z"/>
										<path style="fill:#FFE8D9;" d="M596.821,422.928c-1.754,2.813-6.695,2.281-9.244,0.68
											c-0.893-0.554-6.572,5.391-10.085,2.855c0,0,1.15-1.828,3.279-4.953c0.171-0.249,1.472-3.239,4.354-4.119
											c7.611-2.326,8.725-2.985,11.277-1.389C598.959,417.6,598.569,420.125,596.821,422.928z"/>
										<path style="fill:#383736;" d="M597.037,424.085c3.129,3.05,6.244,3.243,6.244,3.243s5.685-2.267,7.896-3.978
											c6.749-5.223,29.273-34.962,31.778-45.053c2.743-11.073,6.094-48.97,6.094-48.97s3.763-21.416-8.476-24.187
											c-10.192-2.303-14.066,6.703-16.08,15.631c-1.592,7.018-5.507,54.515-5.507,54.515l-30.393,39.426
											C588.595,414.712,590.846,418.049,597.037,424.085z"/>
									</g>
								</g>
							</g>
						</g>
					</g>
				</g>
			</g>
		</g>
	</g>
</g>
</svg>
